<?xml version="1.0" ?><svg enable-background="new -143.239 42.801 349.633 481.934" id="Layer_1" version="1.1" viewBox="-143.239 42.801 349.633 481.934" xml:space="preserve" xmlns="http://www.w3.org/2000/svg" xmlns:xlink="http://www.w3.org/1999/xlink"><g id="Layer_1_1_"/><path d="M204.801,318.31c-1.841-2.857-5.008-4.585-8.407-4.585c-3.302,0-6.611,0.187-9.812,0.367  c-3.352,0.188-6.521,0.369-9.495,0.332c-3.307-0.039-6.693-0.329-10.279-0.636c-2.71-0.232-5.512-0.473-8.366-0.606  c-5.355-0.251-11.019-0.707-18.286-1.471c-0.335-0.037-0.668-0.058-1-0.062c-0.217-0.593-0.435-1.191-0.655-1.798  c-1.064-2.923-2.164-5.945-3.445-8.95c-1.357-3.182-2.707-6.463-4.013-9.635c-1.028-2.5-2.057-5-3.102-7.488  c-1.188-2.827-2.426-5.638-3.624-8.356c-1.258-2.854-2.559-5.806-3.757-8.684c-1.231-2.961-2.538-5.873-3.801-8.688  c-1.289-2.872-2.506-5.585-3.651-8.346c-1.228-2.96-2.483-5.908-3.739-8.856c-1.175-2.758-2.35-5.517-3.502-8.287  c-1.086-2.612-2.152-5.232-3.219-7.853c-1.273-3.13-2.548-6.261-3.856-9.381c-0.92-2.191-1.832-4.386-2.745-6.581  c-1.474-3.544-2.947-7.089-4.453-10.624c-2.437-5.722-4.91-11.431-7.393-17.146c-1.085-2.498-2.07-5.077-3.114-7.807  c-1.189-3.113-2.42-6.332-3.854-9.55c-1.444-3.239-3.011-6.367-4.526-9.392c-1.288-2.569-2.504-4.996-3.635-7.457  c-3.014-6.56-5.53-11.954-7.919-16.976c-1.124-2.362-2.182-4.755-3.3-7.288c-1.411-3.193-2.87-6.495-4.493-9.776  c-1.64-3.316-3.398-6.532-5.1-9.642c-1.305-2.384-2.536-4.636-3.722-6.934c-2.762-5.352-5.71-11.044-8.729-16.637  c-1.062-1.964-2.102-3.941-3.144-5.919c-1.628-3.09-3.305-6.274-5.072-9.443c-0.386-1.144-0.877-2.078-1.259-2.784  c-0.17-0.596-0.395-1.177-0.674-1.735c-0.922-1.844-1.696-3.537-2.515-5.329c-0.851-1.862-1.731-3.788-2.804-5.934  c-1.872-3.772-5.948-6.013-10.17-5.506c-3.206,0.384-6.725,2.529-8.216,6.502c-1.149,2.302-2.289,4.6-3.426,6.892  c-1.557,3.138-3.108,6.266-4.671,9.377l-0.685,1.363c-2.614,5.204-5.217,10.387-7.845,15.544c-1.485,2.917-3.059,5.769-4.724,8.788  c-1.404,2.544-2.855,5.175-4.248,7.845c-1.084,2.079-2.154,4.165-3.225,6.252c-1.775,3.46-3.611,7.038-5.466,10.484  c-3.043,5.651-6.168,11.26-9.092,16.48c-2.754,4.918-5.729,10.098-9.362,16.299c-1.165,1.989-2.313,3.997-3.464,6.01  c-1.932,3.38-3.931,6.876-5.984,10.212c-0.057,0.093-0.113,0.187-0.167,0.281c-0.917,1.605-1.763,3.138-2.58,4.62  c-2.652,4.808-4.747,8.605-8.021,12.534c-0.494,0.592-0.917,1.24-1.262,1.93c-0.973,1.947-1.485,3.928-1.937,5.676  c-0.125,0.486-0.3,1.164-0.432,1.591c-1.37,2.148-2.811,4.322-4.208,6.431c-1.857,2.802-3.778,5.7-5.611,8.651  c-1.373,2.209-2.761,4.403-4.147,6.592c-1.935,3.057-3.936,6.218-5.867,9.381c-1.858,3.044-3.629,6.121-5.342,9.097  c-1.429,2.483-2.778,4.828-4.184,7.172l-0.485,0.809c-3.018,5.034-6.139,10.239-9.164,15.387c-1.801,3.063-3.495,6.16-5.133,9.155  c-1.385,2.533-2.694,4.926-4.066,7.307c-1.385,2.403-2.827,4.756-4.354,7.247c-1.767,2.883-3.594,5.863-5.329,8.937  c-1.293,2.292-2.632,4.603-3.973,6.918c-1.823,3.148-3.708,6.403-5.494,9.633c-1.712,3.098-1.659,6.869,0.139,9.918  c1.798,3.048,5.074,4.919,8.613,4.919c2.545,0,5.144,0.015,7.746,0.029c2.923,0.016,5.846,0.027,8.711,0.029  c2.477-0.009,4.954,0.031,7.432,0.067c2.873,0.04,5.847,0.083,8.815,0.065c3.051-0.018,6.032-0.175,8.916-0.327  c2.556-0.134,4.97-0.262,7.357-0.293c2.179-0.028,4.357-0.036,6.536-0.044c3.187-0.011,6.481-0.022,9.771-0.101  c2.298-0.054,4.606-0.04,7.051-0.024c3.014,0.02,6.129,0.039,9.297-0.08c5.446-0.203,9.727-4.73,9.626-10.18  c-0.002-0.099-0.005-0.197-0.01-0.295c1.948-3.831,4.005-7.608,6.009-11.289c2.728-5.007,5.528-9.922,8.326-14.61l0.877-1.471  c2.561-4.297,5.208-8.74,7.913-12.993c1.55-2.437,2.943-4.892,4.29-7.266c1.486-2.62,2.89-5.094,4.417-7.405  c1.523-2.305,3.162-4.58,4.896-6.988c1.634-2.269,3.323-4.614,4.963-7.059c1.691-2.521,3.324-5.09,4.903-7.574  c0.796-1.252,1.607-2.527,2.426-3.798c0.37,0.662,0.745,1.335,1.124,2.02c1.438,2.599,2.712,5.409,4.063,8.383  c0.996,2.194,2.026,4.464,3.167,6.74l0.524,1.046c2.31,4.605,4.697,9.368,6.854,14.061c2.301,5.003,4.521,10.166,6.781,15.458  c1.552,3.632,3.059,7.416,4.517,11.074c0.615,1.545,1.23,3.089,1.854,4.635c1.112,2.755,2.335,5.367,3.518,7.895  c1.079,2.306,2.106,4.501,2.989,6.668c-0.669-0.043-1.339-0.091-2.008-0.144c-4.374-0.343-8.888-0.791-13.254-1.224  c-1.628-0.162-3.256-0.323-4.882-0.48c-4.942-0.477-9.806-0.725-14.511-0.965c-1.414-0.072-2.823-0.145-4.225-0.222  c-0.069-0.004-0.138-0.007-0.207-0.01c-0.227-0.046-0.453-0.11-0.679-0.168c-2.628-0.662-9.604-2.419-15.687,3.664  c-3.066,3.067-3.807,7.761-1.833,11.622c1.638,3.204,3.146,6.425,4.744,9.835c1.093,2.334,2.185,4.664,3.313,6.976l2.25,4.597  c1.97,4.018,4.006,8.172,5.935,12.247c1.399,2.955,2.785,6.023,4.125,8.99c1.222,2.708,2.444,5.414,3.704,8.104  c1.442,3.08,2.984,6.07,4.475,8.961c1.407,2.729,2.735,5.305,3.974,7.926c1.052,2.226,2.085,4.462,3.121,6.7  c1.582,3.421,3.218,6.959,4.918,10.46c1.12,2.306,2.182,4.631,3.306,7.092c1.511,3.308,3.073,6.728,4.8,10.128  c2.256,4.441,4.656,8.872,6.977,13.156l3.205,5.938c2.543,4.729,5.171,9.619,7.97,14.465c2.403,4.331,4.573,8.632,6.769,13.023  c2.283,4.563,4.675,9.09,7.313,13.838c0.02,0.035,0.039,0.07,0.059,0.105c1.593,2.787,3.285,5.249,4.921,7.631  c1.271,1.85,2.471,3.596,3.479,5.293c1.565,2.638,2.983,5.354,4.485,8.229c0.849,1.625,1.695,3.245,2.567,4.851l0.47,0.862  c2.154,3.959,4.188,7.697,5.9,11.693c1.6,3.736,5.257,6.083,9.194,6.083c0.662,0,1.333-0.066,2.003-0.204  c4.651-0.954,7.986-5.028,7.986-9.776c0.117-0.409,0.966-1.622,1.527-2.425c0.363-0.52,0.73-1.045,1.089-1.583  c0.332-0.497,0.618-1.022,0.855-1.57c1.256-2.899,2.355-5.802,3.418-8.608c1.274-3.365,2.479-6.543,3.871-9.534  c2.735-5.871,5.601-11.658,8.54-17.563c1.506-3.025,3.229-6.008,5.053-9.166c1.473-2.55,2.995-5.187,4.439-7.919l1.698-3.218  c2.435-4.62,4.952-9.397,7.529-14.012c3.09-5.537,6.253-10.956,9.771-16.96c0.111-0.19,0.217-0.386,0.316-0.584  c1.094-2.188,1.927-4.045,2.733-5.842c0.682-1.521,1.329-2.964,2.116-4.565c2.229-3.419,3.946-6.755,5.61-9.985  c0.907-1.763,1.765-3.428,2.652-4.998c1.301-2.301,2.703-4.547,4.188-6.926c1.531-2.452,3.115-4.989,4.629-7.666  c0.507-0.897,1.013-1.801,1.521-2.708c2.101-3.752,4.273-7.633,6.739-11.331c0.23-0.346,0.438-0.705,0.624-1.076  c1.282-2.564,2.115-5.115,2.488-7.616c1.119-1.965,2.295-3.906,3.522-5.934c1.552-2.563,3.157-5.215,4.655-7.947  c3.156-5.76,6.206-11.406,8.818-17.157C206.904,324.766,206.642,321.168,204.801,318.31z M121.373,332.694  c-0.9,1.469-1.826,2.946-2.774,4.462c-1.328,2.123-2.702,4.317-4.033,6.531c-1.272,2.12-2.532,4.241-3.791,6.36  c-2.017,3.397-4.102,6.91-6.181,10.298l-2.911,4.731c-2.405,3.904-4.893,7.941-7.324,11.985c-0.496,0.826-1.003,1.669-1.518,2.527  c-0.135-0.249-0.269-0.498-0.4-0.747c-1.565-2.944-2.891-6.189-4.295-9.625c-0.841-2.06-1.712-4.188-2.664-6.325  c-0.991-2.223-2.041-4.378-3.056-6.462c-1.592-3.27-3.095-6.356-4.261-9.443c-1.442-3.822-2.671-7.751-3.971-11.911  c-0.501-1.604-1.002-3.209-1.517-4.808c-0.012-0.035-0.022-0.071-0.034-0.107c1.331,0.072,2.656,0.146,3.972,0.228  c3.729,0.228,7.423,0.32,10.994,0.41c2.899,0.073,5.639,0.142,8.394,0.277c2.865,0.141,5.716,0.362,8.733,0.598  c3.434,0.267,6.983,0.543,10.581,0.691C117.33,332.449,119.327,332.564,121.373,332.694z M40.931,251.395  c-2.297-5-4.763-9.917-7.147-14.672l-0.522-1.041c-0.968-1.932-1.875-3.93-2.834-6.045c-1.452-3.199-2.953-6.507-4.775-9.8  c-3.221-5.821-6.146-10.852-8.942-15.38c-1.822-2.95-5.042-4.746-8.508-4.746c-8.581,0-12.08,7.158-13.229,9.51  c-0.094,0.192-0.207,0.423-0.307,0.62c-0.169,0.15-0.333,0.303-0.484,0.455c-1.067,1.066-2.374,2.62-3.032,4.93  c-1.176,1.802-2.315,3.594-3.426,5.342c-1.583,2.491-3.08,4.845-4.634,7.161c-1.455,2.169-2.975,4.279-4.583,6.513  c-1.773,2.462-3.607,5.008-5.352,7.648c-1.903,2.879-3.542,5.77-5.128,8.565c-1.28,2.257-2.489,4.389-3.769,6.4  c-2.861,4.5-5.584,9.069-8.218,13.489l-0.872,1.463c-2.93,4.91-5.861,10.055-8.714,15.292c-2.013,3.697-4.077,7.486-6.083,11.416  c-0.381-0.002-0.764-0.004-1.15-0.007c-2.484-0.016-5.053-0.032-7.65,0.03c-3.089,0.073-6.281,0.084-9.368,0.095  c-2.244,0.008-4.487,0.017-6.729,0.046c-2.782,0.037-5.508,0.181-8.146,0.319c-2.775,0.146-5.397,0.284-7.98,0.299  c-2.774,0.019-5.639-0.024-8.414-0.063c-2.32-0.033-4.64-0.065-6.958-0.069c0.308-0.539,0.613-1.078,0.917-1.615  c1.557-2.76,3.211-5.459,4.963-8.316c1.529-2.495,3.11-5.075,4.631-7.713c1.483-2.575,2.907-5.178,4.284-7.695  c1.636-2.992,3.182-5.819,4.827-8.615c2.982-5.074,6.081-10.242,9.076-15.239l0.486-0.81c1.497-2.498,2.955-5.03,4.364-7.479  c1.649-2.866,3.354-5.829,5.078-8.651c1.847-3.025,3.803-6.116,5.695-9.105c1.415-2.236,2.833-4.476,4.236-6.734  c1.678-2.702,3.434-5.351,5.293-8.155c1.616-2.438,3.287-4.958,4.91-7.528c0.177-0.281,0.34-0.57,0.489-0.867  c0.973-1.947,1.485-3.928,1.937-5.676c0.089-0.347,0.205-0.792,0.311-1.174c3.856-4.88,6.389-9.471,9.056-14.307  c0.747-1.355,1.519-2.755,2.354-4.218c2.191-3.566,4.243-7.156,6.229-10.628c1.116-1.952,2.228-3.898,3.358-5.827  c3.7-6.316,6.736-11.602,9.555-16.635c2.966-5.295,6.14-10.992,9.252-16.772c1.95-3.622,3.832-7.29,5.652-10.837  c1.05-2.047,2.1-4.094,3.164-6.134c1.284-2.462,2.616-4.876,4.025-7.432c1.671-3.028,3.398-6.16,5.033-9.369  c2.645-5.19,5.265-10.407,7.896-15.646l0.109-0.217c1.298,2.376,2.571,4.794,3.815,7.156c1.074,2.039,2.147,4.076,3.24,6.101  c2.938,5.441,5.837,11.039,8.554,16.304c1.296,2.514,2.646,4.979,3.95,7.364c1.678,3.066,3.262,5.962,4.718,8.908  c1.432,2.894,2.741,5.856,4.126,8.993c1.126,2.548,2.29,5.182,3.534,7.797c2.35,4.939,4.83,10.256,7.807,16.734  c1.272,2.769,2.621,5.461,3.927,8.065c1.48,2.956,2.88,5.748,4.14,8.575c1.214,2.723,2.296,5.552,3.44,8.547  c1.076,2.816,2.189,5.728,3.453,8.636c2.462,5.669,4.916,11.334,7.335,17.013c1.482,3.481,2.935,6.974,4.386,10.465  c0.922,2.216,1.843,4.432,2.771,6.641c1.28,3.052,2.526,6.117,3.773,9.181c1.086,2.669,2.172,5.337,3.278,7.996  c1.174,2.821,2.37,5.632,3.567,8.443c1.231,2.89,2.463,5.78,3.666,8.682c1.254,3.023,2.587,5.995,3.877,8.868  c1.264,2.817,2.457,5.478,3.584,8.188c1.278,3.07,2.621,6.117,3.92,9.065c1.163,2.639,2.366,5.368,3.485,8.035  c1.027,2.445,2.037,4.897,3.046,7.352c1.33,3.231,2.704,6.573,4.111,9.872c0.517,1.21,1.008,2.452,1.492,3.729  c-0.667-0.034-1.336-0.065-2.006-0.093c-3.235-0.134-6.45-0.384-9.854-0.649c-3.025-0.235-6.154-0.479-9.306-0.634  c-2.994-0.146-5.982-0.222-8.872-0.294c-3.551-0.09-6.905-0.174-10.275-0.38c-2.392-0.146-4.813-0.273-7.246-0.401  c-1.514-0.08-3.047-0.16-4.584-0.246c-0.414-0.537-0.881-1.028-1.391-1.468c-0.002-0.006-0.004-0.012-0.006-0.019  c-0.969-2.952-1.971-6.005-3.143-9.032c-1.212-3.132-2.591-6.078-3.925-8.928c-1.119-2.391-2.176-4.649-3.084-6.899  c-0.611-1.516-1.216-3.035-1.821-4.554c-1.503-3.771-3.057-7.672-4.705-11.53C45.614,261.925,43.336,256.624,40.931,251.395z   M179.142,335.404c-1.291,2.354-2.717,4.709-4.226,7.202c-1.642,2.71-3.338,5.514-4.966,8.495c-0.802,1.469-1.221,3.087-1.221,4.761  c-0.009,0.132-0.098,0.578-0.394,1.257c-2.711,4.127-4.959,8.144-7.137,12.034c-0.494,0.882-0.985,1.76-1.479,2.633  c-1.299,2.298-2.7,4.542-4.184,6.918c-1.533,2.456-3.119,4.995-4.633,7.673c-1.08,1.91-2.068,3.83-3.024,5.687  c-1.57,3.048-3.053,5.928-4.837,8.604c-0.23,0.345-0.438,0.704-0.624,1.075c-1.094,2.188-1.927,4.045-2.733,5.842  c-0.714,1.593-1.391,3.101-2.229,4.794c-3.507,5.986-6.674,11.415-9.807,17.029c-2.693,4.824-5.269,9.709-7.759,14.434l-1.688,3.198  c-1.269,2.401-2.632,4.763-4.076,7.262c-1.896,3.282-3.855,6.677-5.638,10.256c-3,6.027-5.929,11.941-8.766,18.031  c-1.317,2.83-2.449,5.669-3.517,8.454c-1.407-2.69-2.873-5.456-4.522-8.235c-1.346-2.268-2.793-4.374-4.192-6.41  c-1.457-2.122-2.835-4.127-4.01-6.176c-2.484-4.474-4.735-8.732-6.878-13.018c-2.217-4.435-4.601-9.159-7.213-13.861  c-0.027-0.05-0.055-0.099-0.083-0.147c-2.661-4.604-5.23-9.384-7.716-14.005l-3.235-5.995c-2.362-4.361-4.594-8.481-6.73-12.688  c-1.54-3.03-2.948-6.114-4.44-9.379c-1.123-2.459-2.284-5.001-3.507-7.52c-1.617-3.33-3.213-6.78-4.756-10.116  c-1.058-2.289-2.115-4.575-3.19-6.852c-1.387-2.934-2.858-5.787-4.28-8.547c-1.47-2.85-2.858-5.542-4.139-8.276  c-1.22-2.605-2.403-5.228-3.587-7.851c-1.376-3.049-2.8-6.202-4.276-9.32c-1.987-4.197-4.054-8.414-6.054-12.493l-2.233-4.562  c-0.453-0.929-0.9-1.86-1.343-2.794c3.506,0.187,7.062,0.404,10.534,0.739c1.607,0.154,3.216,0.314,4.827,0.475  c4.466,0.442,9.084,0.9,13.661,1.26c3.909,0.308,7.769,0.464,11.414,0.541c0.101,0.117,0.204,0.23,0.31,0.342  c0.967,3.405,1.979,6.836,3.073,10.237c0.497,1.545,0.981,3.097,1.466,4.648c1.328,4.249,2.701,8.643,4.35,13.01  c1.492,3.951,3.271,7.604,4.99,11.135c0.985,2.024,1.916,3.937,2.771,5.854c0.824,1.849,1.598,3.74,2.416,5.743  c1.529,3.743,3.11,7.612,5.146,11.445c2.874,5.409,6.125,10.487,9.27,15.398l0.535,0.837c1.891,2.954,5.204,4.71,8.696,4.606  c3.506-0.096,6.706-2.021,8.433-5.074c3.227-5.707,6.714-11.512,9.789-16.63c2.373-3.947,4.832-7.938,7.21-11.797l2.93-4.763  c2.155-3.513,4.278-7.089,6.332-10.548c1.24-2.089,2.481-4.181,3.736-6.269c1.236-2.058,2.503-4.081,3.843-6.223  c2.08-3.322,4.228-6.755,6.268-10.343c1.189-1.783,2.493-3.734,3.594-5.104c4.419,0.394,8.312,0.663,12.092,0.841  c2.47,0.115,4.96,0.329,7.596,0.555c3.79,0.324,7.708,0.66,11.752,0.707c0.945,0.011,1.891,0.006,2.833-0.012  C179.505,334.741,179.323,335.072,179.142,335.404z"/></svg>